<?xml version="1.0" encoding="UTF-8" standalone="no"?>
<svg
   width="128"
   height="128"
   viewBox="0 0 128 128"
   version="1.1"
   id="close"
   xmlns="http://www.w3.org/2000/svg"
   xmlns:svg="http://www.w3.org/2000/svg">
  <path
     style="fill:#fff;"
     d="M 64 0 A 64 64 0 0 0 0 64 A 64 64 0 0 0 64 128 A 64 64 0 0 0 128 64 A 64 64 0 0 0 64 0 z M 40.589844 36.433594 A 5 5 0 0 1 44.908203 37.837891 L 64 56.929688 L 83.091797 37.837891 A 5 5 0 0 1 90.162109 37.837891 A 5 5 0 0 1 90.162109 44.908203 L 71.070312 64 L 90.162109 83.091797 A 5 5 0 0 1 90.162109 90.162109 A 5 5 0 0 1 83.091797 90.162109 L 64 71.070312 L 44.908203 90.162109 A 5 5 0 0 1 37.837891 90.162109 A 5 5 0 0 1 37.837891 83.091797 L 56.929688 64 L 37.837891 44.908203 A 5 5 0 0 1 37.837891 37.837891 A 5 5 0 0 1 40.589844 36.433594 z " />
</svg>
